HIERARCHY
ROOT Spine
{
    OFFSET 0.0 0.0 -0.0
    CHANNELS 6 Xposition Yposition Zposition Zrotation Xrotation Yrotation
    JOINT ShoulderCenter
    {
        OFFSET 0.0 32.91801452636719 0.0
        CHANNELS 3 Zrotation Xrotation Yrotation
        JOINT LeftShoulder
        {
            OFFSET 18.90908432006836 0.0 0.0
            CHANNELS 3 Zrotation Xrotation Yrotation
            JOINT LeftElbow
            {
                OFFSET 28.86017608642578 0.0 0.0
                CHANNELS 3 Zrotation Xrotation Yrotation
                JOINT LeftHand
                {
                    OFFSET 32.74818420410156 0.0 0.0
                    CHANNELS 3 Zrotation Xrotation Yrotation
                    End Site
                    {
                        OFFSET 13.099272727966309 0.0 0.0
                    }
                }
            }
        }
        JOINT RightShoulder
        {
            OFFSET -18.90908432006836 0.0 0.0
            CHANNELS 3 Zrotation Xrotation Yrotation
            JOINT RightElbow
            {
                OFFSET -28.86017608642578 0.0 0.0
                CHANNELS 3 Zrotation Xrotation Yrotation
                JOINT RightHand
                {
                    OFFSET -32.74818420410156 0.0 0.0
                    CHANNELS 3 Zrotation Xrotation Yrotation
                    End Site
                    {
                        OFFSET -13.099272727966309 0.0 0.0
                    }
                }
            }
        }
        End Site
        {
            OFFSET 0.0 13.167206764221191 0.0
        }
    }
    JOINT LeftHip
    {
        OFFSET 16.377992894104644 -16.377992894104644 0.0
        CHANNELS 3 Zrotation Xrotation Yrotation
        JOINT LeftKnee
        {
            OFFSET 0.0 -41.17974090576172 0.0
            CHANNELS 3 Zrotation Xrotation Yrotation
            JOINT LeftFoot
            {
                OFFSET 0.0 -40.11579132080078 0.0
                CHANNELS 3 Zrotation Xrotation Yrotation
                End Site
                {
                    OFFSET 0.0 0.0 16.04631805419922
                }
            }
        }
    }
    JOINT RightHip
    {
        OFFSET -16.377992894104644 -16.377992894104644 0.0
        CHANNELS 3 Zrotation Xrotation Yrotation
        JOINT RightKnee
        {
            OFFSET 0.0 -41.17974090576172 0.0
            CHANNELS 3 Zrotation Xrotation Yrotation
            JOINT RightFoot
            {
                OFFSET 0.0 -40.11579132080078 0.0
                CHANNELS 3 Zrotation Xrotation Yrotation
                End Site
                {
                    OFFSET 0.0 0.0 16.04631805419922
                }
            }
        }
    }
}
MOTION
Frames: 11
Frame Time: 0.03333333333333333
74.69999694824219 64.60000610351562 239.29998779296875 6.87793313736969 -37.82835798246931 -176.35220971007521 6.79192120966963e-07 -1.4579562914861925e-06 -6.126957919173995 100.7747965383807 30.265596716443493 -51.14814204367379 4.2557040089396634e-07 -2.33521008808927e-06 114.31060866854627 -5.168401357378215e-15 -2.3854160110976376e-15 -1.0758896601497261e-31 -85.06694216424957 4.672846845437722 47.47536974120967 1.1983679538144806e-06 -1.6377064696040656e-06 -119.31408370833856 -3.1805546814635164e-15 -1.5902773407317582e-15 -4.4139062980501586e-32 6.7681740046489605 -37.533689725009445 19.928307231392388 2.204109480133811 11.385611901802895 -37.5771060081645 0.0 0.0 3.3793393490549868e-15 9.969536234486345 -39.36328812372033 -8.219712831318887 -6.568800482230387 11.12469120321591 29.315738729438113 0.0 0.0 1.1181637552020177e-16
74.69999694824219 64.4000015258789 238.00001525878906 6.958374787536314 -38.56305115421531 -176.01741634395626 -1.0669603262503418e-07 -1.4443207643538343e-06 -6.122471811748749 99.18025045044914 30.313175466019306 -47.94852009410576 1.6109701589475335e-06 8.197470237241787e-07 114.93910731992167 -2.385416011097637e-15 3.1805546814635164e-15 6.620859447075238e-32 -84.74991326156021 5.38783069674183 44.63515074922204 1.7266555278451308e-06 -6.3998680196924e-06 -119.80163584450658 -7.951386703658792e-16 3.1805546814635168e-15 2.2069531490250793e-32 6.433819715750917 -37.59276081370892 21.187385220364547 2.6631383156851554 10.850335451878363 -36.619596380540905 1.987846675914698e-16 0.0 0.0 9.808715337994935 -39.45715242167565 -9.354651836072884 -6.728999309697295 10.970630379740447 29.122984459983726 1.9878466759146977e-16 5.344964657795114e-33 3.0811623476677814e-15
74.80000305175781 64.20000457763672 236.8000030517578 7.236933093159608 -39.31134387996377 -175.61435432886861 -2.0026974352989177e-07 -4.783298521424971e-07 -5.8878566349700545 97.7387350524071 29.92495761625175 -44.276594186677976 -9.260177837408159e-07 1.7530272689971446e-06 115.42376442841201 6.620859447075238e-32 -4.770832022195275e-15 1.5902773407317584e-15 -84.29014057723845 6.08812983697176 41.89173694020289 1.5112342727947927e-06 1.254495839057291e-06 -120.27223020533441 1.5902773407317584e-15 1.5902773407317584e-15 3.1805546814635168e-15 6.8349701635268145 -37.80472837012947 22.506846010292048 2.5320808598035747 11.010324660351756 -37.49282681272165 0.0 0.0 -3.3793393490549868e-15 10.023375418391476 -39.55825835180335 -9.531738341886083 -6.726941943246949 10.91229800988782 28.493597123780578 -1.987846675914698e-16 7.974342433000774e-34 -4.596895438052739e-16
74.9000015258789 64.0 235.5 7.068591727004998 -39.815116855957505 -175.19102254475555 -3.2024988805596886e-07 3.5353149755162387e-06 -6.094022289174345 96.16418041582807 29.124024628715073 -41.272328104141685 2.710921761773772e-06 -1.5266479217176743e-06 116.28516341367514 -7.951386703658792e-16 -3.1805546814635168e-15 -3.1805546814635168e-15 -83.85836738444556 5.9821179761522405 39.47452109485594 -1.9815587976382178e-08 6.396201100776064e-08 -120.46655560360051 7.156248033292914e-15 3.1805546814635168e-15 -1.9862578341225716e-31 6.831757693805378 -37.92541065583155 25.849046381297537 2.790594810547995 11.234250604551967 -39.10222743817771 3.9756933518293955e-16 1.3793457181406746e-33 3.9756933518293955e-16 9.628718540829492 -39.30678057482766 -10.555263611486996 -6.876722295769337 10.470924838611827 27.51336484622971 -1.6207312188152926e-32 -1.5902773407317584e-15 -1.167859922099885e-15
75.0 63.70000076293945 234.29998779296875 7.549429809055375 -40.03173761836093 -174.55359972001133 1.2036009494148869e-07 -3.6657658252263845e-06 -6.934404119699818 95.54290777163597 29.289221499974285 -38.33287142506467 -1.515079242135338e-06 1.569852873913055e-07 116.27601817117636 0.0 0.0 -1.5902773407317588e-15 -83.18473817383835 5.204543544705798 37.350653802566335 -1.8095751859577716e-06 -8.622978594027644e-07 -120.91641718524497 -3.1805546814635176e-15 3.1805546814635176e-15 8.827812596100317e-32 6.947251903783668 -37.63892230999144 26.503614085185472 2.995359146022068 11.178029577410312 -38.47079844432974 -8.965747167914385e-33 -1.5902773407317584e-15 -6.460501696722769e-16 9.701233903136307 -38.92732562241651 -10.756526234391899 -6.6720004090044185 10.491315658061325 27.1152529433471 0.0 0.0 3.2302508483613845e-16
75.0999984741211 63.599998474121094 233.10000610351562 7.579498389857644 -40.40997099538249 -174.2895028612183 1.2802371226745287e-07 3.5372971295370304e-06 -7.370855091329538 94.52683117428059 28.803795538336306 -35.443563211695796 1.939008698057421e-06 -8.895684053789546e-07 116.76616833519695 5.565970692561154e-15 -1.5448672043175555e-31 -3.1805546814635168e-15 -82.35327473907591 4.761423309992441 34.962961613299484 3.5787453060680468e-06 -3.6427289818790744e-06 -121.21526369779264 0.0 0.0 3.1805546814635168e-15 6.957604309083755 -37.47698752241976 27.177057018104364 2.917948181158412 11.296884429771 -38.75927976776533 0.0 0.0 0.0 9.529850474660439 -38.79154048069466 -11.687218627813756 -6.8136706543931025 10.466728681094216 27.636404590781304 0.0 0.0 2.4848083448933725e-17
75.30000305175781 63.30000305175781 231.89999389648438 8.033046088108026 -40.379287759210115 -174.53413981293133 -3.320881837034165e-07 1.8769619426105676e-06 -7.150570534477876 94.02033845594195 28.459684034197608 -33.08893155955849 4.8717179222238165e-06 3.5543602531653636e-07 117.04793103457104 -2.3854160110976376e-15 -3.1805546814635168e-15 3.1805546814635168e-15 -81.10911734841224 4.746845168924561 32.81832364103477 -1.5277318713220503e-06 -5.530487032230081e-06 -120.84352367102585 1.7655625192200634e-31 -3.1805546814635164e-15 6.361109362927033e-15 7.525905998643637 -36.84679511460779 28.155219177796084 3.427250565854574 11.13946622219216 -38.908632511486346 -1.9878466759146985e-16 3.1805546814635176e-15 5.46657835876542e-16 10.254235084460765 -38.02596142495084 -11.999066157680652 -6.773037005068405 10.188986177546818 26.662346277880438 0.0 0.0 -1.1181637552020177e-16
75.4000015258789 63.099998474121094 230.8000030517578 8.259434021924578 -40.4957574435003 -174.09981388805878 3.2926373558002754e-07 2.0356808430516863e-06 -7.854140109212181 93.48495695165326 28.1189517439761 -30.629138057457805 -2.351159675982368e-06 -4.2180977266447826e-06 117.14667650307146 -1.5902773407317588e-15 -1.5902773407317588e-15 3.1805546814635176e-15 -80.45028199763006 4.413180792402187 30.94563142032547 -4.149689267898381e-06 -3.2586068083682376e-06 -120.70598459896632 -1.5902773407317584e-15 -3.1805546814635168e-15 3.1805546814635168e-15 7.484745855864626 -36.58131512219507 28.051054845707828 3.6221041746792557 11.399188196752462 -39.966886531410246 5.963540027744094e-16 4.3966644765734004e-33 8.448348372637467e-16 10.181262934349855 -37.38329448637453 -11.269792109712435 -6.354824763092181 10.03764318839269 25.977160126585247 1.9878466759146977e-16 -3.1805546814635168e-15 -7.20594420019078e-16
75.4000015258789 62.80000305175781 229.60000610351562 8.25943634087267 -40.363321363239834 -174.10170016043094 4.783085695646795e-07 1.0099255368696463e-06 -8.190883423311197 92.68102825740425 28.206068491365613 -28.660994814516762 -2.7081508496975906e-06 1.945354285475586e-06 116.8660889850675 0.0 0.0 0.0 -79.797799071358 4.1866366171115015 29.503810698791277 2.462591010896784e-06 1.866145450801008e-06 -120.52778076699586 -1.5902773407317584e-15 -3.1805546814635168e-15 -4.4139062980501586e-32 7.482302539429783 -35.884061847539144 29.06717889795576 4.13244680405799 11.256600011477348 -40.932617397007355 -3.975693351829397e-16 3.1805546814635176e-15 -3.975693351829397e-16 10.316292558082731 -36.56801368200795 -11.264166325875237 -6.61423222556997 9.90074654060884 25.174822222097 0.0 0.0 1.987846675914698e-15
75.5 62.5 228.60000610351562 8.485563032908354 -40.47934572753005 -174.53060996131867 -5.735584996306148e-07 -2.15046940828026e-06 -7.932334764042068 92.40667750224726 28.05558529479669 -26.58173383384499 -2.013251818710388e-06 7.630728073734296e-07 116.75508322814719 1.5902773407317582e-15 1.5902773407317582e-15 -3.1805546814635164e-15 -78.85690530304637 3.4160038299388207 27.725076751664524 1.2380645255865604e-06 -9.37715268559939e-07 -120.1065947303051 -1.5902773407317582e-15 0.0 0.0 7.8747235589586095 -35.09216231602446 26.64415957870175 3.6990692223310773 11.152022703810692 -39.61802975670124 0.0 0.0 -1.7890620083232284e-15 10.550728982868744 -36.19690213359052 -11.365600946762683 -6.356286497849976 10.126941466372399 25.83789579076647 -1.9878466759146977e-16 -1.1638229496811941e-33 6.708982531212104e-16
75.5999984741211 62.30000305175781 227.50001525878906 8.86668033222137 -39.69139946429231 -174.624763373853 -1.4454811648583163e-08 -4.212293235402171e-06 -7.912970485681567 92.11737438104123 28.560821220076463 -25.589851490335622 -6.661302273746937e-07 -2.825278178177369e-06 116.29930126041975 9.541664044390549e-15 2.648343778830095e-31 3.1805546814635164e-15 -78.25043254132565 3.5121026435037117 26.512283651951762 1.604185999529146e-06 1.986798767914328e-06 -119.38110424354801 1.590277340731758e-15 3.1805546814635164e-15 3.1805546814635164e-15 8.38306396974912 -33.73121283647901 26.397099415033054 3.8549621919180135 11.365618824309845 -40.14659121790811 3.975693351829396e-16 2.2414367919785963e-33 6.460501696722769e-16 11.028132600425689 -34.834576910596006 -12.358663859047503 -6.413053796533576 9.985077525096424 25.927518608809393 0.0 0.0 5.963540027744094e-16
